<?xml version="1.0" encoding="utf-8"?>
<!-- Generator: Adobe Illustrator 27.2.0, SVG Export Plug-In . SVG Version: 6.00 Build 0)  -->
<svg version="1.1" id="Layer_1" xmlns="http://www.w3.org/2000/svg" xmlns:xlink="http://www.w3.org/1999/xlink" x="0px" y="0px"
	 viewBox="0 0 24 24" style="enable-background:new 0 0 24 24;" xml:space="preserve">
<style type="text/css">
	.st0{fill:#5B5C5C;}
</style>
<path class="st0" d="M21.6,0H2.4C1.1,0,0,1.1,0,2.4v19.2C0,22.9,1.1,24,2.4,24h19.2c1.3,0,2.4-1.1,2.4-2.4V2.4C24,1.1,22.9,0,21.6,0
	z M7,14.5c1.1,0.5,2.3,0,2.8-1h1.7C11,15.4,9,16.6,7,16.1c-2-0.5-3.2-2.5-2.7-4.5S6.8,8.5,8.8,9c1.3,0.3,2.4,1.4,2.7,2.7H9.8
	c-0.5-1.1-1.7-1.5-2.8-1s-1.5,1.7-1,2.8C6.2,13.9,6.6,14.3,7,14.5z M18.4,15.3c-0.3,0.3-0.7,0.5-1.1,0.6c-1.1,0.4-2.4,0.3-3.4-0.4
	v0.4h-1.5V5.4h1.5v4.1c0.5-0.4,1.2-0.6,1.8-0.6H16c2,0,3.7,1.6,3.7,3.7C19.7,13.6,19.2,14.6,18.4,15.3z M18.2,12.5
	c0,1.2-0.9,2.1-2.1,2.1S14,13.8,14,12.6c0,0,0-0.1,0-0.1c0-1.2,1-2.1,2.1-2.1C17.2,10.5,18.1,11.4,18.2,12.5z"/>
</svg>
