<?xml version="1.0" encoding="utf-8"?>
<!-- Generator: Adobe Illustrator 27.2.0, SVG Export Plug-In . SVG Version: 6.00 Build 0)  -->
<svg version="1.1" id="Layer_1" xmlns="http://www.w3.org/2000/svg" xmlns:xlink="http://www.w3.org/1999/xlink" x="0px" y="0px"
	 viewBox="0 0 128 128" style="enable-background:new 0 0 128 128;" xml:space="preserve">
<style type="text/css">
	.st0{fill:#5B5C5C;}
</style>
<path class="st0" d="M118.6,0H9.4C4.3-0.1,0.1,4.1,0,9.2v109.6c0.1,5.1,4.3,9.3,9.4,9.2h109.1c5.2,0,9.4-4.1,9.4-9.2V9.2
	C127.9,4.1,123.7,0,118.6,0z M18.9,48h19v61.1h-19L18.9,48z M28.5,17.6c6.1,0,11,4.9,11,11c0,6.1-4.9,11-11,11s-11-4.9-11-11
	c0,0,0,0,0,0C17.4,22.5,22.4,17.6,28.5,17.6 M49.9,48h18.2v8.4h0.3c2.5-4.8,8.7-9.9,18-9.9c19.2,0,22.8,12.6,22.8,29v33.6h-19V79.4
	c0-7.1-0.1-16.2-9.9-16.2s-11.4,7.7-11.4,15.7v30.2h-19L49.9,48z"/>
</svg>
